<svg width="170" height="32" viewBox="0 0 170 32" fill="none" xmlns="http://www.w3.org/2000/svg">
<g clip-path="url(#clip0)">
<path fill-rule="evenodd" clip-rule="evenodd" d="M15.3728 0C6.87193 0 0 6.92298 0 15.487C0 22.333 4.40313 28.1278 10.5115 30.1791C11.2751 30.3329 11.555 29.8458 11.555 29.4355C11.555 29.0765 11.5296 27.8458 11.5296 26.5637C7.25371 27.4868 6.3629 24.7176 6.3629 24.7176C5.67571 22.9228 4.65764 22.4612 4.65764 22.4612C3.25781 21.5125 4.75945 21.5125 4.75945 21.5125C6.312 21.6151 7.12645 23.1023 7.12645 23.1023C8.50084 25.4612 10.7151 24.7945 11.6059 24.3843C11.7332 23.3843 12.1404 22.692 12.5731 22.3074C9.16258 21.9484 5.5739 20.6151 5.5739 14.6665C5.5739 12.9742 6.18474 11.5896 7.1519 10.5127C6.99919 10.1281 6.46471 8.53835 7.30461 6.41017C7.30461 6.41017 8.60264 5.99992 11.5296 7.99989C12.7513 7.66656 14.0747 7.48708 15.3728 7.48708C16.6708 7.48708 17.9943 7.66656 19.216 7.99989C22.1429 5.99992 23.4409 6.41017 23.4409 6.41017C24.2808 8.53835 23.7464 10.1281 23.5936 10.5127C24.5863 11.5896 25.1716 12.9742 25.1716 14.6665C25.1716 20.6151 21.583 21.9228 18.147 22.3074C18.7069 22.7946 19.1905 23.7176 19.1905 25.1791C19.1905 27.256 19.1651 28.9227 19.1651 29.4355C19.1651 29.8458 19.445 30.3329 20.2086 30.1791C26.317 28.1278 30.7201 22.333 30.7201 15.487C30.7455 6.92298 23.8482 0 15.3728 0Z" fill="black"/>
<path d="M5.82864 22.2306C5.80319 22.3075 5.67593 22.3332 5.57412 22.2819C5.47232 22.2306 5.39596 22.128 5.44687 22.0511C5.47232 21.9742 5.59958 21.9485 5.70138 21.9998C5.80319 22.0511 5.85409 22.1537 5.82864 22.2306Z" fill="black"/>
<path d="M6.43929 22.9229C6.36294 22.9998 6.21023 22.9485 6.13387 22.846C6.03207 22.7434 6.00662 22.5895 6.08297 22.5126C6.15933 22.4357 6.28658 22.487 6.38839 22.5895C6.4902 22.7177 6.51565 22.8716 6.43929 22.9229Z" fill="black"/>
<path d="M7.05029 23.8204C6.94849 23.8973 6.79578 23.8204 6.71942 23.6921C6.61761 23.5639 6.61761 23.3845 6.71942 23.3332C6.82123 23.2563 6.97394 23.3332 7.05029 23.4614C7.1521 23.5896 7.1521 23.7434 7.05029 23.8204Z" fill="black"/>
<path d="M7.88979 24.6922C7.81344 24.7947 7.63527 24.7691 7.48256 24.6409C7.35531 24.5127 7.3044 24.3332 7.40621 24.2563C7.48256 24.1537 7.66073 24.1794 7.81344 24.3076C7.94069 24.4101 7.96614 24.5896 7.88979 24.6922Z" fill="black"/>
<path d="M9.03518 25.1791C9.00973 25.3074 8.83157 25.3586 8.65341 25.3074C8.47524 25.2561 8.37344 25.1022 8.39889 24.9997C8.42434 24.8715 8.6025 24.8202 8.78066 24.8715C8.95882 24.9227 9.06063 25.0509 9.03518 25.1791Z" fill="black"/>
<path d="M10.2823 25.2818C10.2823 25.41 10.1296 25.5126 9.95148 25.5126C9.77332 25.5126 9.62061 25.41 9.62061 25.2818C9.62061 25.1536 9.77332 25.051 9.95148 25.051C10.1296 25.051 10.2823 25.1536 10.2823 25.2818Z" fill="black"/>
<path d="M11.453 25.0767C11.4785 25.2049 11.3512 25.3331 11.173 25.3588C10.9949 25.3844 10.8422 25.3075 10.8167 25.1793C10.7913 25.0511 10.9185 24.9229 11.0967 24.8972C11.2748 24.8716 11.4276 24.9485 11.453 25.0767Z" fill="black"/>
</g>
<path d="M55.5092 13.4363H52.6728C52.4425 12.2302 51.8758 11.306 50.9728 10.6636C50.0758 10.0151 49.0334 9.69082 47.8455 9.69082C46.7788 9.69082 45.8213 9.96052 44.9728 10.4999C44.1243 11.0393 43.4546 11.8302 42.9637 12.8727C42.4788 13.909 42.2364 15.1818 42.2364 16.6909C42.2364 18.206 42.4818 19.4848 42.9728 20.5272C43.4637 21.5697 44.1303 22.3576 44.9728 22.8909C45.8213 23.4242 46.7758 23.6909 47.8364 23.6909C49.0122 23.6909 50.0516 23.3727 50.9546 22.7363C51.8576 22.1 52.4304 21.1879 52.6728 20L55.5092 20.0091C55.3092 21.2333 54.8607 22.3151 54.1637 23.2545C53.4667 24.1939 52.5758 24.9303 51.491 25.4636C50.4061 25.9909 49.1819 26.2545 47.8182 26.2545C46.2061 26.2545 44.7697 25.8727 43.5091 25.1091C42.2485 24.3394 41.2546 23.2394 40.5273 21.8091C39.8061 20.3788 39.4455 18.6727 39.4455 16.6909C39.4455 14.703 39.8091 12.9969 40.5364 11.5726C41.2637 10.1423 42.2576 9.04536 43.5182 8.28172C44.7788 7.51202 46.2122 7.12717 47.8182 7.12717C49.1334 7.12717 50.3304 7.37566 51.4092 7.87263C52.494 8.3696 53.394 9.09082 54.1092 10.0363C54.8304 10.9757 55.2971 12.109 55.5092 13.4363ZM61.1146 7.38172V26H58.3964V7.38172H61.1146ZM68.5791 26.3091C67.6942 26.3091 66.8942 26.1455 66.1791 25.8182C65.47 25.4909 64.9063 25.0121 64.4881 24.3818C64.07 23.7454 63.8609 22.9697 63.8609 22.0545C63.8609 21.2606 64.0124 20.6091 64.3154 20.1C64.6245 19.5909 65.0336 19.1878 65.5427 18.8909C66.0578 18.5939 66.6336 18.3727 67.27 18.2272C67.9063 18.0757 68.5548 17.9606 69.2154 17.8818C70.0518 17.7848 70.7276 17.706 71.2427 17.6454C71.7639 17.5787 72.1427 17.4727 72.3791 17.3272C72.6215 17.1818 72.7427 16.9454 72.7427 16.6181V16.5545C72.7427 15.7606 72.5185 15.1454 72.07 14.709C71.6276 14.2727 70.967 14.0545 70.0882 14.0545C69.173 14.0545 68.4518 14.2545 67.9245 14.6545C67.4033 15.0545 67.0427 15.503 66.8427 15.9999L64.2881 15.4181C64.7427 14.1454 65.5003 13.2333 66.5609 12.6817C67.6276 12.1302 68.7912 11.8545 70.0518 11.8545C70.6094 11.8545 71.2003 11.9211 71.8245 12.0545C72.4488 12.1817 73.0367 12.4211 73.5882 12.7727C74.1458 13.1181 74.5973 13.609 74.9427 14.2454C75.2943 14.8818 75.47 15.709 75.47 16.7272V26H72.8155V24.0909H72.7064C72.4458 24.6121 71.9821 25.1121 71.3154 25.5909C70.6488 26.0697 69.7367 26.3091 68.5791 26.3091ZM69.17 24.1273C69.9276 24.1273 70.573 23.9788 71.1064 23.6818C71.6397 23.3848 72.0458 22.997 72.3245 22.5182C72.6094 22.0333 72.7518 21.5151 72.7518 20.9636V19.1636C72.6245 19.2909 72.3458 19.403 71.9155 19.5C71.4851 19.5969 71.0306 19.6788 70.5518 19.7454C70.073 19.8121 69.6851 19.8666 69.3882 19.9091C68.6003 20.0121 67.9245 20.2212 67.3609 20.5363C66.8033 20.8454 66.5245 21.3636 66.5245 22.0909C66.5245 22.7636 66.773 23.2727 67.27 23.6182C67.7669 23.9576 68.4003 24.1273 69.17 24.1273ZM89.2982 15.4454L86.8345 15.8818C86.677 15.4151 86.383 14.9878 85.9527 14.5999C85.5285 14.206 84.8921 14.009 84.0436 14.009C83.2739 14.009 82.6284 14.1818 82.1072 14.5272C81.5921 14.8666 81.3375 15.306 81.3436 15.8454C81.3375 16.3181 81.5072 16.6969 81.8527 16.9818C82.2042 17.2606 82.7648 17.4909 83.5345 17.6727L85.7527 18.1818C88.2982 18.7697 89.5709 20.0303 89.5709 21.9636C89.5709 22.806 89.3285 23.5515 88.8436 24.2C88.3648 24.8485 87.6951 25.3576 86.8345 25.7273C85.98 26.097 84.9891 26.2818 83.8618 26.2818C82.2921 26.2818 81.0163 25.9485 80.0345 25.2818C79.0527 24.6091 78.4466 23.6545 78.2163 22.4182L80.8436 22.0182C81.1709 23.4 82.1709 24.0909 83.8436 24.0909C84.7345 24.0909 85.4466 23.906 85.98 23.5364C86.5133 23.1606 86.78 22.703 86.78 22.1636C86.78 21.2727 86.1224 20.6818 84.8072 20.3909L82.4436 19.8727C81.1345 19.5818 80.1709 19.1091 79.5527 18.4545C78.9345 17.8 78.6254 16.9787 78.6254 15.9909C78.6254 15.1666 78.8557 14.4454 79.3163 13.8272C79.7769 13.203 80.4133 12.7181 81.2254 12.3727C82.0375 12.0272 82.9678 11.8545 84.0163 11.8545C85.5254 11.8545 86.7133 12.1817 87.58 12.8363C88.4467 13.4908 89.0194 14.3605 89.2982 15.4454ZM102.767 15.4454L100.304 15.8818C100.146 15.4151 99.8521 14.9878 99.4218 14.5999C98.9975 14.206 98.3612 14.009 97.5127 14.009C96.743 14.009 96.0975 14.1818 95.5763 14.5272C95.0612 14.8666 94.8066 15.306 94.8127 15.8454C94.8066 16.3181 94.9763 16.6969 95.3218 16.9818C95.6733 17.2606 96.2339 17.4909 97.0036 17.6727L99.2218 18.1818C101.767 18.7697 103.04 20.0303 103.04 21.9636C103.04 22.806 102.798 23.5515 102.313 24.2C101.834 24.8485 101.164 25.3576 100.304 25.7273C99.4491 26.097 98.4581 26.2818 97.3309 26.2818C95.7612 26.2818 94.4854 25.9485 93.5036 25.2818C92.5217 24.6091 91.9157 23.6545 91.6854 22.4182L94.3127 22.0182C94.6399 23.4 95.6399 24.0909 97.3127 24.0909C98.2036 24.0909 98.9157 23.906 99.4491 23.5364C99.9824 23.1606 100.249 22.703 100.249 22.1636C100.249 21.2727 99.5915 20.6818 98.2763 20.3909L95.9127 19.8727C94.6036 19.5818 93.6399 19.1091 93.0217 18.4545C92.4036 17.8 92.0945 16.9787 92.0945 15.9909C92.0945 15.1666 92.3248 14.4454 92.7854 13.8272C93.246 13.203 93.8824 12.7181 94.6945 12.3727C95.5066 12.0272 96.4369 11.8545 97.4854 11.8545C98.9945 11.8545 100.182 12.1817 101.049 12.8363C101.916 13.4908 102.488 14.3605 102.767 15.4454ZM105.773 26V12.0363H108.4V14.2545H108.545C108.8 13.503 109.248 12.9121 109.891 12.4817C110.533 12.0454 111.267 11.8272 112.091 11.8272C112.473 11.8272 112.815 11.8727 113.118 11.9636C113.421 12.0545 113.688 12.1787 113.918 12.3363L113.045 14.609C112.882 14.5242 112.697 14.4575 112.491 14.409C112.285 14.3605 112.048 14.3363 111.782 14.3363C110.842 14.3363 110.058 14.6333 109.427 15.2272C108.803 15.8151 108.491 16.5636 108.491 17.4727V26H105.773ZM121.099 26.2818C119.789 26.2818 118.647 25.9818 117.671 25.3818C116.695 24.7818 115.938 23.9424 115.398 22.8636C114.859 21.7788 114.589 20.5182 114.589 19.0818C114.589 17.6333 114.859 16.3666 115.398 15.2818C115.938 14.1969 116.695 13.3545 117.671 12.7545C118.647 12.1545 119.789 11.8545 121.099 11.8545C122.414 11.8545 123.556 12.1545 124.526 12.7545C125.502 13.3545 126.259 14.1969 126.799 15.2818C127.338 16.3666 127.608 17.6333 127.608 19.0818C127.608 20.5182 127.338 21.7788 126.799 22.8636C126.259 23.9424 125.502 24.7818 124.526 25.3818C123.556 25.9818 122.414 26.2818 121.099 26.2818ZM121.108 24C121.962 24 122.665 23.7757 123.217 23.3273C123.774 22.8788 124.186 22.2818 124.453 21.5363C124.726 20.7848 124.862 19.9636 124.862 19.0727C124.862 18.1818 124.726 17.3606 124.453 16.609C124.186 15.8575 123.774 15.2575 123.217 14.809C122.665 14.3545 121.962 14.1272 121.108 14.1272C120.253 14.1272 119.547 14.3545 118.989 14.809C118.432 15.2575 118.017 15.8575 117.744 16.609C117.471 17.3606 117.335 18.1818 117.335 19.0727C117.335 19.9636 117.471 20.7848 117.744 21.5363C118.017 22.2818 118.432 22.8788 118.989 23.3273C119.547 23.7757 120.253 24 121.108 24ZM136.268 26.2818C134.959 26.2818 133.816 25.9818 132.84 25.3818C131.865 24.7818 131.107 23.9424 130.568 22.8636C130.028 21.7788 129.758 20.5182 129.758 19.0818C129.758 17.6333 130.028 16.3666 130.568 15.2818C131.107 14.1969 131.865 13.3545 132.84 12.7545C133.816 12.1545 134.959 11.8545 136.268 11.8545C137.583 11.8545 138.725 12.1545 139.695 12.7545C140.671 13.3545 141.428 14.1969 141.968 15.2818C142.507 16.3666 142.777 17.6333 142.777 19.0818C142.777 20.5182 142.507 21.7788 141.968 22.8636C141.428 23.9424 140.671 24.7818 139.695 25.3818C138.725 25.9818 137.583 26.2818 136.268 26.2818ZM136.277 24C137.131 24 137.834 23.7757 138.386 23.3273C138.943 22.8788 139.356 22.2818 139.622 21.5363C139.895 20.7848 140.031 19.9636 140.031 19.0727C140.031 18.1818 139.895 17.3606 139.622 16.609C139.356 15.8575 138.943 15.2575 138.386 14.809C137.834 14.3545 137.131 14.1272 136.277 14.1272C135.422 14.1272 134.716 14.3545 134.159 14.809C133.601 15.2575 133.186 15.8575 132.913 16.609C132.64 17.3606 132.504 18.1818 132.504 19.0727C132.504 19.9636 132.64 20.7848 132.913 21.5363C133.186 22.2818 133.601 22.8788 134.159 23.3273C134.716 23.7757 135.422 24 136.277 24ZM145.555 26V12.0363H148.164V14.309H148.337C148.628 13.5393 149.103 12.9393 149.764 12.509C150.425 12.0727 151.215 11.8545 152.137 11.8545C153.07 11.8545 153.852 12.0727 154.482 12.509C155.119 12.9454 155.588 13.5454 155.891 14.309H156.037C156.376 13.5636 156.906 12.9696 157.628 12.5272C158.355 12.0787 159.222 11.8545 160.228 11.8545C161.494 11.8545 162.528 12.2545 163.328 13.0545C164.134 13.8484 164.537 15.0424 164.537 16.6363V26H161.819V16.8909C161.819 15.9454 161.561 15.2605 161.046 14.8363C160.537 14.4121 159.922 14.1999 159.2 14.1999C158.316 14.1999 157.628 14.4727 157.137 15.0181C156.646 15.5636 156.4 16.2575 156.4 17.1V26H153.691V16.7181C153.691 15.9606 153.455 15.3515 152.982 14.8908C152.509 14.4302 151.894 14.1999 151.137 14.1999C150.367 14.1999 149.697 14.4969 149.128 15.0909C148.558 15.6848 148.273 16.4515 148.273 17.3909V26H145.555Z" fill="black"/>
<defs>
<clipPath id="clip0">
<rect width="30.7202" height="30.7202" fill="white"/>
</clipPath>
</defs>
</svg>
